<svg width="92" height="100" viewBox="0 0 92 100" fill="none" xmlns="http://www.w3.org/2000/svg">
    <path d="M3.96536 0.102501C2.05377 0.502724 0.600333 1.8877 0.115854 3.77296L0 4.23637V42.3628V80.4892L0.136918 80.9947C0.400222 81.9321 0.837306 82.6483 1.56929 83.3381C2.05377 83.7963 2.3908 84.0122 3.0122 84.2808C3.92323 84.6757 2.55405 84.6389 18.1785 84.6757L32.1968 84.702L39.048 92.3484C42.8132 96.556 45.9202 100 45.9413 100C45.9676 100 49.0851 96.5613 52.8767 92.3642L59.7595 84.7284H73.683C86.211 84.7284 87.6486 84.7178 88.012 84.6441C89.8604 84.265 91.3559 82.7852 91.7983 80.9052C91.8878 80.505 91.8931 79.2727 91.8931 42.3891C91.8931 5.80566 91.8878 4.27324 91.7983 3.88354C91.3981 2.16681 90.1605 0.792358 88.5491 0.271019C87.6539 -0.02388 90.9504 -0.00281525 45.8939 0.00244904C6.08232 0.00771332 4.40771 0.0129776 3.96536 0.102501ZM25.5036 11.7932C26.0039 11.8195 26.62 11.8827 26.8728 11.9301C27.8049 12.1039 28.6527 12.4462 29.2531 12.8938C29.9008 13.373 30.4485 14.2472 30.6854 15.1898C30.8013 15.6374 30.8066 15.7638 30.8066 17.4806C30.8066 19.2184 30.8013 19.3132 30.6854 19.7186C30.4485 20.5402 29.9693 21.2037 29.4268 21.4722C29.3321 21.5196 29.2531 21.5723 29.2531 21.5934C29.2531 21.6092 29.3637 21.6408 29.5058 21.6618C30.2852 21.7672 31.291 22.3254 31.8071 22.9467C32.3864 23.6366 32.6971 24.4844 32.7866 25.6167C32.8709 26.6699 32.8235 32.6153 32.7287 32.8733C32.6392 33.1208 32.4232 33.3104 32.1494 33.3841C32.0125 33.421 31.033 33.4368 29.2689 33.4262L26.5937 33.4104L26.3936 33.2893C26.0039 33.0418 26.0197 33.1577 25.9881 30.0402L25.9618 27.2491L25.8301 26.9911C25.6616 26.6541 25.5089 26.5487 25.1192 26.4855C24.9454 26.4592 23.8606 26.4329 22.7126 26.4329H20.6167V29.5188C20.6167 31.7464 20.6009 32.6679 20.5535 32.8154C20.4798 33.0576 20.2691 33.2788 20.0269 33.3683C19.7847 33.4526 14.7345 33.4631 14.4501 33.3789C14.1816 33.2946 13.9498 33.0734 13.8814 32.8259C13.7971 32.5257 13.8024 12.6147 13.8814 12.3672C14.0025 12.0091 14.2237 11.8511 14.666 11.7932C15.1084 11.7353 24.4662 11.7353 25.5036 11.7932ZM48.0793 11.8406C49.5275 12.0144 50.6491 12.3777 51.5496 12.9781C51.9499 13.2414 52.5291 13.868 52.7977 14.3262C53.0715 14.8001 53.3348 15.5426 53.4612 16.2167C53.5455 16.659 53.556 17.054 53.556 19.5607C53.556 22.7203 53.5402 22.8941 53.1979 23.9052C52.5239 25.8694 50.8493 26.9753 48.0793 27.2755C47.7897 27.3071 46.5311 27.3492 45.2777 27.365L43.0028 27.3966L42.987 30.1139C42.9712 32.6995 42.9659 32.8417 42.8711 32.9892C42.571 33.442 42.571 33.442 39.4693 33.4262C36.9205 33.4104 36.8046 33.4052 36.6308 33.3051C36.3675 33.1471 36.257 32.9734 36.199 32.5942C36.1674 32.373 36.1516 28.7394 36.1622 22.3517L36.178 12.4515L36.2991 12.2303C36.4307 11.9722 36.6361 11.8511 37.0205 11.7879C37.4524 11.7247 47.4684 11.7669 48.0793 11.8406ZM63.2193 11.8775C63.3509 11.9406 63.5616 12.1039 63.688 12.2461C63.8249 12.4041 64.4673 13.5099 65.3415 15.1003C66.1314 16.5221 66.8423 17.7755 66.9213 17.8755C67.0583 18.0493 67.0846 18.0598 67.3795 18.0598C67.6428 18.0598 67.7112 18.0388 67.8166 17.9282C67.885 17.8545 68.5749 16.6222 69.3543 15.1951C70.1336 13.7627 70.8446 12.4831 70.9446 12.3514C71.2079 11.9828 71.4607 11.8459 71.9557 11.7827C72.1979 11.7563 73.4618 11.7405 74.8678 11.7511C77.0269 11.7669 77.385 11.7774 77.543 11.8511C77.7747 11.9564 77.9327 12.1355 78.0117 12.3672C78.0907 12.6042 78.0959 32.5257 78.017 32.8154C77.9432 33.0629 77.6957 33.3051 77.4219 33.3789C77.2639 33.4262 76.4319 33.4368 74.5677 33.4262C72.0242 33.4104 71.9294 33.4052 71.7293 33.2999C71.5976 33.2367 71.4765 33.1155 71.4133 32.9839C71.3027 32.7838 71.3027 32.7101 71.2764 27.3018L71.25 21.8251L71.0868 22.1147C70.9973 22.2727 70.5813 23.0415 70.1652 23.8209C69.3385 25.3691 69.1226 25.664 68.6855 25.8589C68.4222 25.98 68.3537 25.9853 67.3005 25.9853C66.1946 25.9853 66.1946 25.9853 65.8944 25.8378C65.7259 25.7536 65.5153 25.5956 65.4152 25.485C65.3204 25.3744 64.857 24.5634 64.3778 23.684C63.9039 22.8046 63.4773 22.0304 63.4352 21.9567C63.3562 21.8409 63.3509 22.3043 63.3246 27.3281C63.293 33.4842 63.3246 33.0313 62.9191 33.2893L62.719 33.4104H60.0333C57.4213 33.4104 57.3423 33.4052 57.1422 33.2999C57.0106 33.2367 56.8895 33.1155 56.8263 32.9839L56.7157 32.7785V22.5887C56.7157 12.4936 56.7157 12.3988 56.821 12.2197C56.9737 11.9564 57.1686 11.8406 57.5161 11.7932C57.6846 11.7669 58.9853 11.7563 60.4019 11.7563C62.9033 11.7669 62.9876 11.7721 63.2193 11.8775ZM39.6852 40.209C40.0749 40.3248 40.275 40.4933 40.454 40.8461L40.6015 41.1516L40.6173 44.385C40.6278 46.5704 40.612 47.7078 40.5751 47.8922C40.4909 48.2976 40.275 48.6031 39.9379 48.7874L39.6536 48.9454L35.941 48.9717L32.2284 48.998L32.2021 60.6097C32.1757 71.6527 32.1705 72.232 32.081 72.4321C31.8808 72.8744 31.5333 73.1114 30.954 73.1957C30.4801 73.2641 23.1813 73.2641 22.7073 73.1957C22.1281 73.1114 21.7805 72.8744 21.5804 72.4321C21.4909 72.232 21.4856 71.6527 21.4593 60.6097L21.4329 48.998L17.7204 48.9717L14.0078 48.9454L13.7234 48.7874C13.3864 48.6031 13.1705 48.3029 13.0862 47.8974C13.0441 47.7131 13.0335 46.623 13.0441 44.3902L13.0599 41.1516L13.2073 40.8461C13.2916 40.6829 13.4338 40.4881 13.5233 40.4196C13.9288 40.1142 13.0967 40.13 26.8096 40.13C38.1896 40.1247 39.4271 40.1352 39.6852 40.209ZM54.1511 40.209C54.4986 40.3248 54.7514 40.5354 54.9041 40.8461L55.0305 41.0989L55.0569 49.8669L55.0832 58.635L55.2991 58.1873C55.4149 57.9398 56.0311 56.618 56.663 55.2436C57.2949 53.8692 57.9058 52.6053 58.0217 52.4368C58.2744 52.0576 58.701 51.7469 59.1591 51.5995C59.454 51.51 59.6963 51.4889 60.6916 51.4626C62.0502 51.431 62.8454 51.4889 63.2877 51.6574C63.6616 51.7996 64.0724 52.1208 64.2988 52.4526C64.3883 52.5842 65.0782 54.0271 65.8313 55.6596L67.1952 58.6244L67.2215 49.888C67.2478 41.6571 67.2531 41.141 67.3426 40.9462C67.4901 40.6092 67.6744 40.4091 67.9429 40.2774L68.1957 40.151H72.3033H76.4108L76.6688 40.2774C76.8163 40.3511 76.9901 40.4933 77.0743 40.6144C77.4061 41.0673 77.385 40.4038 77.385 51.2572C77.385 57.4501 77.364 61.426 77.3324 61.8631C77.2692 62.7109 77.127 63.4745 76.8742 64.3487C76.6636 65.0964 74.2622 71.6632 74.0516 72.0635C73.6935 72.7638 73.2828 73.1009 72.6614 73.1957C72.4086 73.2378 71.2342 73.2483 69.0278 73.2325C65.6101 73.2115 65.5416 73.2115 65.0887 72.9692C64.8149 72.827 64.5095 72.5321 64.362 72.2636C64.2778 72.1003 63.8143 70.5468 63.1403 68.1613C62.5452 66.0496 62.0081 64.2065 61.9449 64.0695C61.7606 63.6693 61.6026 63.5851 61.0339 63.5851C60.4651 63.5851 60.3335 63.6535 60.1439 64.0485C60.0702 64.2012 59.5225 66.018 58.9327 68.0876C58.3376 70.1571 57.7847 71.9897 57.7057 72.153C57.5372 72.5163 57.1843 72.885 56.8684 73.0377C56.742 73.0956 56.4787 73.1641 56.2838 73.1957C55.8099 73.2641 49.9698 73.2641 49.5485 73.1957C49.3695 73.1641 49.1115 73.0903 48.9693 73.0324C48.6586 72.8955 48.232 72.4689 48.0477 72.1161C47.9371 71.916 46.252 67.3187 45.3146 64.6646C45.1303 64.1485 44.9039 63.1796 44.8038 62.4792C44.7143 61.8315 44.709 61.2311 44.709 51.4731V41.1516L44.8565 40.8461C44.9407 40.6829 45.0829 40.4881 45.1724 40.4196C45.5516 40.13 45.5358 40.13 49.875 40.13C53.4454 40.1247 53.9141 40.1352 54.1511 40.209Z"
          fill="black"/>
    <path d="M20.6167 19.0867V21.0088H21.9227C22.6652 21.0088 23.3077 20.9825 23.4235 20.9509C23.6974 20.8771 23.9607 20.6296 24.0765 20.3347C24.1555 20.1294 24.1713 19.9292 24.1713 19.0867C24.1713 18.123 24.166 18.0756 24.0396 17.8281C23.75 17.2488 23.4604 17.1646 21.7384 17.1646H20.6167V19.0867Z"
          fill="black"/>
    <path d="M42.9448 19.6344V21.9041H44.4878C45.3567 21.9041 46.1097 21.883 46.2151 21.8514C46.5205 21.7671 46.7469 21.5828 46.8891 21.2985C47.0208 21.0457 47.026 21.0036 47.0418 19.8398C47.0524 19.0814 47.0366 18.539 46.9997 18.3547C46.9154 17.9545 46.7101 17.6859 46.3625 17.5332C46.0887 17.4121 46.0255 17.4068 44.5141 17.3858L42.9448 17.3647V19.6344Z"
          fill="black"/>
</svg>